# Blender 3.5.0
# www.blender.org
mtllib gameMap.mtl
o Cube
v 38.000000 0.000000 -50.000000
v 38.000000 -1.000000 -50.000000
v 38.000000 0.000000 0.000000
v 38.000000 -1.000000 0.000000
v 0.000000 0.000000 -50.000000
v 0.000000 -1.000000 -50.000000
v 0.000000 0.000000 0.000000
v 0.000000 -1.000000 0.000000
v 38.000000 -1.000000 -16.000000
v 37.000000 -1.000000 -15.000000
v 37.000000 0.000000 -15.000000
v 0.000000 5.000000 0.000000
v 0.000000 0.000000 0.000000
v 0.000000 5.000000 -50.000000
v 0.000000 0.000000 -50.000000
v 4.000000 5.000000 0.000000
v 4.000000 0.000000 0.000000
v 4.000000 5.000000 -50.000000
v 4.000000 0.000000 -50.000000
v 0.000000 0.000000 0.000000
v 0.000000 0.000000 0.000000
v 0.000000 0.000000 0.000000
v 0.000000 0.000000 0.000000
v 0.000000 0.000000 0.000000
v 0.000000 0.000000 0.000000
v 0.000000 0.000000 0.000000
v 0.000000 0.000000 0.000000
v 0.000000 6.000000 -50.000000
v 0.000000 6.000000 0.000000
v 4.000000 6.000000 -50.000000
v 4.000000 6.000000 0.000000
v 4.000000 5.000000 -4.000000
v 4.000000 0.000000 -4.000000
v 4.000000 6.000000 -4.000000
v 14.000000 0.000000 -4.000000
v 15.000000 0.000000 0.000000
v 15.000000 5.000000 0.000000
v 15.000000 6.000000 0.000000
v 14.000000 5.000000 -4.000000
v 14.000000 6.000000 -4.000000
v 15.000000 0.000000 -3.000000
v 15.000000 5.000000 -3.000000
v 15.000000 6.000000 -3.000000
v 4.000000 0.000000 -15.000000
v 4.000000 0.000000 -12.000000
v 4.000000 -1.000000 -12.000000
v 4.000000 -1.000000 -15.000000
v 38.000000 0.000000 -11.000000
v 38.000000 -1.000000 -11.000000
v 37.000000 -1.000000 -12.000000
v 37.000000 0.000000 -12.000000
v 38.000000 0.000000 -16.000000
vn -0.0000 -0.0000 1.0000
vn -1.0000 -0.0000 -0.0000
vn 1.0000 -0.0000 -0.0000
vn -0.0000 -0.0000 -1.0000
vn 0.7071 -0.0000 0.7071
vn -0.0000 1.0000 -0.0000
vn -0.0000 -1.0000 -0.0000
vn -0.7071 -0.0000 0.7071
vn 0.7071 -0.0000 -0.7071
s 0
usemtl grass
f 20//6 21//6 23//6 22//6
f 22//6 23//6 27//6 26//6
f 26//6 27//6 25//6 24//6
f 24//6 25//6 21//6 20//6
f 22//6 26//6 24//6 20//6
f 27//6 23//6 21//6 25//6
f 28//7 30//7 34//7 31//7 29//7
f 31//7 34//7 40//7 43//7 38//7
f 1//6 5//6 19//6 44//6 11//6 52//6
f 7//6 3//6 48//6 51//6 45//6 33//6 35//6 41//6 36//6
usemtl clifftop
f 4//1 3//1 7//1 8//1
f 8//2 7//2 5//2 6//2
f 49//3 48//3 3//3 4//3
f 6//4 5//4 1//4 2//4
f 51//4 50//4 46//4 45//4
f 9//5 52//5 11//5 10//5
f 16//4 12//4 29//4 31//4
f 14//1 18//1 30//1 28//1
f 12//3 14//3 28//3 29//3
f 18//2 32//2 34//2 30//2
f 42//2 37//2 38//2 43//2
f 16//4 31//4 38//4 37//4
f 34//1 32//1 39//1 40//1
f 39//8 42//8 43//8 40//8
f 47//3 44//3 45//3 46//3
f 10//1 11//1 44//1 47//1
f 50//9 51//9 48//9 49//9
f 2//3 1//3 52//3 9//3
usemtl cliff
f 12//3 13//3 15//3 14//3
f 14//1 15//1 19//1 18//1
f 32//1 33//1 35//1 39//1
f 16//4 17//4 13//4 12//4
f 17//4 16//4 37//4 36//4
f 42//2 41//2 36//2 37//2
f 39//8 35//8 41//8 42//8
f 19//2 44//2 45//2 33//2 32//2 18//2
