# Blender 3.5.0
# www.blender.org
mtllib house.mtl
o house
v -1.000000 -1.000000 1.000000
v -1.000000 2.000000 1.000000
v -1.000000 -1.000000 -3.000000
v -1.000000 2.000000 -3.000000
v 2.000000 -1.000000 1.000000
v 2.000000 2.000000 1.000000
v 2.000000 -1.000000 -3.000000
v 2.000000 2.000000 -3.000000
v 2.159722 -0.375000 0.715278
v 2.159722 -0.125000 0.715278
v 1.909722 -0.375000 0.715278
v 1.909722 -0.125000 0.715278
v 2.159722 -0.375000 -0.534722
v 2.159722 -0.125000 -0.534722
v 1.909722 -0.375000 -0.534722
v 1.909722 -0.125000 -0.534722
v 2.034722 -0.087500 0.677778
v 1.909722 -0.125000 0.715278
v 2.034722 -0.087500 -0.497222
v 1.909722 -0.125000 -0.534722
v 2.034722 0.981977 0.677778
v 1.909722 1.000000 0.715278
v 1.909722 1.000000 -0.534722
v 2.034722 0.981977 -0.497222
v 1.909722 1.500000 0.090278
v 2.034722 1.451977 0.090278
v 0.500000 2.500000 -3.000000
v 0.500000 2.500000 1.000000
v 0.500000 2.500000 -3.250000
v 0.500000 2.750000 -3.250000
v 0.500000 2.500000 1.250000
v 0.500000 2.750000 1.250000
v -1.250000 2.150000 -3.250000
v -1.250000 2.150000 1.250000
v -1.250000 1.900000 -3.250000
v -1.250000 1.900000 1.250000
v 2.250000 2.150000 -3.250000
v 2.250000 1.900000 -3.250000
v 2.250000 1.900000 1.250000
v 2.250000 2.150000 1.250000
v 2.000000 -1.000000 -1.000000
v 2.000000 1.500000 -1.000000
v 2.000000 -1.000000 -2.500000
v 2.000000 1.500000 -2.500000
v 2.250000 -0.937500 -1.062500
v 2.250000 1.456687 -1.062500
v 2.250000 -0.937500 -2.437500
v 2.250000 1.456687 -2.437500
v 2.000000 1.687500 -1.500000
v 2.000000 1.687500 -2.000000
v 2.250000 1.625000 -1.988667
v 2.250000 1.625000 -1.511333
v 2.250000 1.500000 -2.500000
v 2.250000 -1.000000 -2.500000
v 2.250000 -1.000000 -1.000000
v 2.250000 1.687500 -1.500000
v 2.250000 1.500000 -1.000000
v 2.250000 1.687500 -2.000000
v 2.187500 1.456687 -2.437500
v 2.187500 -0.937500 -2.437500
v 2.187500 -0.937500 -1.062500
v 2.187500 1.625000 -1.511333
v 2.187500 1.456687 -1.062500
v 2.187500 1.625000 -1.988667
v 2.187500 0.625000 -1.437500
v 2.187500 1.375000 -1.437500
v 2.187500 0.625000 -2.062500
v 2.187500 1.375000 -2.062500
v 2.250000 0.643601 -1.462500
v 2.250000 1.356399 -1.462500
v 2.250000 0.643601 -2.037500
v 2.250000 1.356399 -2.037500
v 2.187500 1.437500 -1.645833
v 2.187500 1.437500 -1.854167
v 2.250000 1.412500 -1.850497
v 2.250000 1.412500 -1.649503
v 2.187500 0.562500 -1.854167
v 2.187500 0.562500 -1.645833
v 2.250000 0.587500 -1.649503
v 2.250000 0.587500 -1.850497
v 2.025000 0.621875 0.681250
v 2.025000 0.503125 0.681250
v 2.025000 0.621875 -0.506250
v 2.025000 0.503125 -0.506250
v 2.025000 0.503125 0.149843
v 2.025000 0.503125 0.025156
v 2.025000 0.621875 0.025156
v 2.025000 0.621875 0.149844
v 2.025000 -0.096875 0.149843
v 2.025000 -0.096875 0.025156
v 2.025000 1.446875 0.025156
v 2.025000 1.446875 0.149844
v 2.034722 -0.125000 -0.534722
v 2.034722 -0.125000 0.715278
v 2.034722 1.500000 0.090278
v 2.034722 1.000000 0.715278
v 2.034722 1.000000 -0.534722
v 2.009722 -0.087500 -0.497222
v 2.009722 -0.087500 0.677778
v 2.009722 1.451977 0.090278
v 2.009722 0.981977 0.677778
v 2.009722 0.981977 -0.497222
v 2.225000 0.962500 -1.450000
v 2.225000 1.037500 -1.450000
v 2.225000 0.962500 -2.050000
v 2.225000 1.037500 -2.050000
v 2.250000 1.375000 -2.062500
v 2.250000 0.625000 -2.062500
v 2.250000 0.562500 -1.854167
v 2.250000 1.437500 -1.645833
v 2.250000 1.375000 -1.437500
v 2.250000 0.625000 -1.437500
v 2.250000 1.437500 -1.854167
v 2.250000 0.562500 -1.645833
v 2.217500 1.356399 -2.037500
v 2.217500 0.643601 -2.037500
v 2.217500 0.587500 -1.850497
v 2.217500 1.412500 -1.649503
v 2.217500 1.356399 -1.462500
v 2.217500 0.643601 -1.462500
v 2.217500 1.412500 -1.850497
v 2.217500 0.587500 -1.649503
v 2.225000 1.037500 -1.706250
v 2.225000 1.037500 -1.793750
v 2.225000 0.962500 -1.793750
v 2.225000 0.962500 -1.706250
v 2.225000 1.412500 -1.706250
v 2.225000 1.412500 -1.793750
v 2.225000 0.587500 -1.793750
v 2.225000 0.587500 -1.706250
vn -1.0000 -0.0000 -0.0000
vn -0.0000 -0.0000 -1.0000
vn 1.0000 -0.0000 -0.0000
vn -0.0000 -0.0000 1.0000
vn -0.0000 -1.0000 -0.0000
vn -0.0000 0.7809 0.6247
vn -0.0000 -0.7809 0.6247
vn -0.0000 0.7809 -0.6247
vn -0.0000 1.0000 -0.0000
vn -0.3243 -0.9459 -0.0000
vn 0.3243 -0.9459 -0.0000
vn -0.3205 -0.9468 0.0291
vn -0.3714 -0.9285 -0.0000
vn -0.3205 -0.9468 -0.0291
vn 0.3205 -0.9468 -0.0291
vn 0.3205 -0.9468 0.0291
vn 0.3714 -0.9285 -0.0000
vn -0.0000 0.9363 0.3511
vn -0.0000 0.9363 -0.3511
vn -0.0000 -0.9363 0.3511
vn -0.0000 -0.9363 -0.3511
vn -0.0000 -0.9578 0.2873
vn -0.0000 0.9578 0.2873
vn -0.0000 0.9578 -0.2873
vn -0.0000 -0.9578 -0.2873
vn -0.0000 -0.7809 -0.6247
s 0
usemtl walls
f 1//1 2//1 4//1 3//1
f 3//2 4//2 27//2 8//2 7//2
f 7//3 8//3 6//3 5//3
f 5//4 6//4 28//4 2//4 1//4
f 3//5 7//5 5//5 1//5
usemtl roof
f 32//10 30//10 37//10 40//10
f 32//11 34//11 33//11 30//11
f 35//4 29//4 30//4 33//4
f 34//3 36//3 35//3 33//3
f 32//2 31//2 36//2 34//2
f 39//2 31//2 32//2 40//2
f 40//1 37//1 38//1 39//1
f 29//4 38//4 37//4 30//4
f 8//12 27//12 29//12 38//12
f 6//13 8//13 38//13 39//13
f 6//14 39//14 31//14 28//14
f 2//15 28//15 31//15 36//15
f 4//16 35//16 29//16 27//16
f 2//17 36//17 35//17 4//17
usemtl door
f 60//3 59//3 64//3 62//3 63//3 61//3
usemtl glass
f 99//3 98//3 102//3 100//3 101//3
f 116//3 115//3 121//3 118//3 119//3 120//3 122//3 117//3
usemtl windowframe
f 25//6 22//6 96//6 95//6
f 93//2 20//2 23//2 97//2
f 18//4 94//4 96//4 22//4
f 24//7 26//7 100//7 102//7
f 23//8 25//8 95//8 97//8
f 67//2 68//2 107//2 108//2
f 71//4 72//4 115//4 116//4
f 112//4 111//4 66//4 65//4
f 78//22 114//22 112//22 65//22
f 110//23 73//23 66//23 111//23
f 107//24 68//24 74//24 113//24
f 113//9 74//9 73//9 110//9
f 67//25 108//25 109//25 77//25
f 77//5 109//5 114//5 78//5
f 81//3 82//3 85//3 86//3 84//3 83//3 87//3 88//3
f 86//3 85//3 89//3 90//3
f 88//3 87//3 91//3 92//3
f 19//3 17//3 94//3 93//3
f 21//3 26//3 95//3 96//3
f 24//3 19//3 93//3 97//3
f 17//3 21//3 96//3 94//3
f 26//3 24//3 97//3 95//3
f 19//4 24//4 102//4 98//4
f 17//9 19//9 98//9 99//9
f 21//2 17//2 99//2 101//2
f 26//26 21//26 101//26 100//26
f 103//1 104//1 123//1 124//1 106//1 105//1 125//1 126//1
f 72//3 71//3 108//3 107//3
f 71//3 80//3 109//3 108//3
f 70//3 76//3 110//3 111//3
f 69//3 70//3 111//3 112//3
f 75//3 72//3 107//3 113//3
f 76//3 75//3 113//3 110//3
f 79//3 69//3 112//3 114//3
f 80//3 79//3 114//3 109//3
f 79//9 80//9 117//9 122//9
f 75//5 76//5 118//5 121//5
f 70//2 69//2 120//2 119//2
f 80//23 71//23 116//23 117//23
f 69//24 79//24 122//24 120//24
f 72//22 75//22 121//22 115//22
f 76//25 70//25 119//25 118//25
f 124//1 123//1 127//1 128//1
f 126//1 125//1 129//1 130//1
usemtl frame
f 16//2 20//2 93//2 14//2 13//2 15//2
f 13//3 14//3 10//3 9//3
f 11//5 15//5 13//5 9//5
f 11//4 9//4 10//4 94//4 18//4 12//4
f 93//9 94//9 10//9 14//9
f 43//2 44//2 53//2 54//2
f 51//5 52//5 62//5 64//5
f 55//4 57//4 42//4 41//4
f 43//5 54//5 55//5 41//5
f 56//18 49//18 42//18 57//18
f 53//19 44//19 50//19 58//19
f 58//9 50//9 49//9 56//9
f 48//3 47//3 54//3 53//3
f 47//3 45//3 55//3 54//3
f 46//3 52//3 56//3 57//3
f 45//3 46//3 57//3 55//3
f 51//3 48//3 53//3 58//3
f 52//3 51//3 58//3 56//3
f 46//2 45//2 61//2 63//2
f 45//9 47//9 60//9 61//9
f 48//20 51//20 64//20 59//20
f 52//21 46//21 63//21 62//21
f 47//4 48//4 59//4 60//4
